# Dn-FamiTracker text export 0.5.0.1
# Module version 0450

# INFO block
TITLE           ""
AUTHOR          ""
COPYRIGHT       ""

# COMMENTS block
COMMENT ""

# PARAMS block
MACHINE         0
FRAMERATE       0
EXPANSION       0
VIBRATO         1
SPLIT           32
PLAYBACKRATE    0 16639

# SEQUENCES block
MACRO       0   0  -1   0   0 : 15 0
MACRO       0   1  -1  -1   0 : 14 13 11 10 8 7 6 5 5 4 4 3 3 3 3 3 3 3 3 3 3 3 3 3 2 2 1 1 1 1 1 0
MACRO       0   2  -1  -1   0 : 15 15 15 15 15 15 0
MACRO       0   3  -1  -1   0 : 15 6 0
MACRO       0   4  -1  -1   0 : 15 0 0 12 11 9 9 8 6 5 4 2 2 1 0
MACRO       0   5  -1  11   0 : 14 13 11 10 8 7 6 5 5 4 4 3 3 3 3 3 3 3 3 3 3 3 3 3 2 2 1 1 1 1 1 0
MACRO       0   6  -1   2   0 : 15 12 10 7 5 3 1 0
MACRO       0   7  -1   2   0 : 7 5 3 1 0
MACRO       0   8  -1  -1   0 : 13 13 13 13 12 12 11 11 10 9 9 9 8 8 7 6 6 5 5 4 4 3 3 3 2 2 2 2 1 1 1 0
MACRO       1   0   2  -1   0 : -11 -7 0
MACRO       1   1  -1  -1   0 : 20 15 12 8 5 4 0
MACRO       1   2  -1  -1   0 : 7 4 0 -4 -6 -8 0
MACRO       1   3   0  -1   0 : 0 3 7
MACRO       1   4   0  -1   0 : 0 4 7
MACRO       2   0   0  -1   0 : 0 1 0 1 0 -1 0 -1
MACRO       2   1  -1  -1   0 : 0 126 126 126 126 64
MACRO       4   0  -1  -1   0 : 2
MACRO       4   1   0  -1   0 : 0 0 0 0 1 1 1 1 2 2 2 2 1 1 1 1
MACRO       4   2   0  -1   0 : 0 0 0 0 0 0 0 0 1 1 1 1 1 1 1 1 2 2 2 2 2 2 2 2 1 1 1 1 1 1 1 1

# DPCM SAMPLES block
DPCMDEF   0  1217 "Chord1.MinorC"
DPCM : FF 18 00 7F F0 05 F8 F1 FF 01 E0 81 FE E6 0F 00 82 77 FD 1F E0 1F 00 C0 FF 03 FE C1 1F 00 0F C0
DPCM : FF E1 FF 0F 00 00 5F E0 FF 8F 0D 00 FF E1 0F E0 7F 00 3E 0F C5 80 FF F0 3F 00 3F 80 BF FE 07 00
DPCM : 7F C0 3F D1 2F 00 00 F0 FF 83 FF 81 05 F8 0F E0 7F FC 1F 00 00 F8 0F F0 FF 43 00 F8 1F FF 03 F8
DPCM : 0F E8 1E 3B 00 F8 1F E0 FF E0 00 F8 4F FF 00 E0 FF 0F F0 3F 00 60 0E FC FF 7D 00 38 00 FE 03 F0
DPCM : FF 3F 00 05 80 FF 87 FF FF 00 00 7E 80 FF 03 0C FE 0F D4 07 60 FE 03 F8 FF 07 00 7F C0 39 00 FE
DPCM : FF 0F D0 0F 00 F0 3F FC FF 07 00 04 E0 7F 0C DF FF 07 00 0F 00 FE 7F FE 1E 00 80 1F F0 FF 01 C0
DPCM : FF 07 C0 1F 80 73 0B FF FF 01 C0 3F 00 F0 1F FC FF 07 00 02 C0 F9 7F FF FF 01 00 14 F0 F8 1F FF
DPCM : 1D 00 00 A1 7C FC 1F 3F 1F 00 80 7F 7E 1C 80 FF FF 00 C0 7D 00 F0 DF FF 07 16 00 00 1F FE FF FF
DPCM : 7F 00 00 C0 03 F8 FF FF 03 00 00 FC 07 FE FF 03 90 3E 00 F8 03 FF E1 FF 80 0F 00 FE 03 D0 FF FF
DPCM : 01 1F 00 78 00 FE FF FF C0 07 00 F8 81 EF FF 7F 00 00 00 FE 81 FF FF 0F 00 00 80 FF E7 E7 C3 23
DPCM : 0B 0F 80 FF 00 F8 FF 3F 38 00 80 2F C0 FF FF 1F 0F 01 00 E0 E7 FF FF 7D 00 00 00 FF E1 FF 3F 00
DPCM : 02 00 1F F7 D7 F9 3F C0 07 00 C7 F9 18 FC 3F F8 03 80 0F 80 E0 FF 3F FF 07 00 00 E0 FF FF 1F 7E
DPCM : 00 00 60 FC FF FE 0F 34 00 80 07 BF FF FF 03 00 02 E0 3F B4 1F FD 03 FF 00 E0 03 8C 8F FF 0F 7E
DPCM : 03 C0 07 C0 EF FF C7 1F 00 00 80 F3 FF FF 07 10 00 F0 1F FD F3 FF 01 00 01 F0 CF F9 FF 0F 00 78
DPCM : 07 F8 03 FC 80 FF C7 7F 00 00 03 F8 FF FF 07 00 02 78 80 FF FF FF 01 1E 00 80 F8 FF FF FF 00 00
DPCM : 00 FC E7 1F F8 0F 00 FE 01 30 F0 FF 17 7F 00 79 00 FC D7 03 C6 FF 0F 00 14 00 F8 FF FF 7F 00 00
DPCM : 40 20 FF FF 0F FE 0F 00 00 1F FE FF FF 03 00 00 FF 03 FC FF 03 80 FC 07 07 00 F8 FF 8F BF 1E 00
DPCM : 78 00 FE FF 1F 3E 00 00 7E 00 F8 FF 7F 80 47 00 9C C3 FF 7F 00 7C 38 00 FF 03 F8 FF 3F 00 F8 00
DPCM : 7F 80 FF FF 00 20 FE 03 F8 00 FE FF 3F 70 00 00 7E E0 FF FF 03 00 F8 01 FE 01 FF BF 04 C0 1F 00
DPCM : 7E FF FF 1F 00 00 FC 00 FF 00 FF FF 04 00 3F 00 BC FE FF 3F 00 C0 1B 00 FE E0 FF 9F 1F 00 02 00
DPCM : FE FF FF 1F 00 00 7E 00 7F FC FF 03 08 E0 07 00 FF FF FF 0F 00 00 FC 03 7E 78 FF 8F 00 F0 03 00
DPCM : FE FF FF 07 00 00 FC 80 FF 1F FE 07 00 F0 38 C0 FF FF FF 00 00 C0 3F 80 FF 0F FE 81 30 68 08 C0
DPCM : FF FF FF 63 00 00 25 C0 FF FF FF 00 20 30 04 C0 FF FF FF 1B 00 00 F0 FF FF 07 1F 00 00 7F 03 80
DPCM : FF FF FF 01 00 03 E0 EF FF 07 FC 01 80 0F 00 E0 FF FF FF 03 00 00 F0 F3 FF 0F FC 00 E0 07 00 FE
DPCM : FF FF FF 00 00 00 FC F9 FF 07 18 00 FC 0F 00 FC FF 1F FF 01 00 00 F0 FF FF 03 7F 00 F8 03 00 F8
DPCM : FF FF 3F 00 00 00 E0 FF FF 07 70 00 FC 23 E0 FF FF 0F 1F 00 00 38 F0 FF FF 03 E0 81 DF 00 80 FF
DPCM : FF FF 0F 00 00 00 F8 FF FF 0F 00 80 EF 01 C0 FF FF 3F 03 00 00 10 FE FF FF 03 00 E0 FF 03 E0 FF
DPCM : FF 07 00 05 00 04 FE FF FF 0A C1 79 F0 00 F0 FF FF 7F 00 00 00 00 FF FF FF 03 00 1F 7C 00 FE FF
DPCM : FF 30 02 00 20 F8 FF FF 1F 00 80 3F BF 00 F8 FF 1F D8 03 00 00 F0 FF FF 5F 00 00 F4 FF 00 FC FF
DPCM : 7F 80 06 40 00 F0 FF FF 0F 00 0C FA 7D E0 2F FF 0F F0 07 00 00 F0 FF FF 0F 00 80 DF 33 C0 FF FC
DPCM : 0F F0 0F 00 00 FC FF FF 0F 00 00 EC 1F F1 87 FF 03 F0 0F 00 00 FC FF FF 07 00 08 FC 7F F8 01 F8
DPCM : 3F F8 03 04 00 F8 FF FF 07 00 07 E8 AF FF 07 E0 3F 38 08 78 00 FE FF FF 01 00 E0 FF 80 FF 07 00
DPCM : BF FF 01 00 80 FF 4F FD 3F 00 C0 FF 80 F3 07 58 C7 E7 01 13 80 FF 1F FC 3C 00 80 FF F9 3F 00 F0
DPCM : ED 80 FD 1F 00 FE 0F 04 7E 01 FC 1F F0 7F 00 C0 FF 07 F0 1F 80 87 FF 07 1C 00 F8 1F F0 FF 03 00
DPCM : FE 0F F0 0F F8 07 7E C0 7E 00 F8 3F 70 1F 02 01 FE 1F FE 07 F0 41 1F E0 FF 01 F0 0F E1 59 F0 1F
DPCM : FC 03 F8 07 E0 F9 3F 00 1E 09 F4 DF F1 19 00 0F F7 01 FC BF 01 81 1F 8A 1F FF D4 3D 00 3C E0 17
DPCM : FE 07 F0 F1 00 E0 BF 7F 02 0B E4 3F 00 FF FC 0F 80 0E F0 EF 78 E0 03 A1 87 7F C0 FF 40 01 F8 1F
DPCM : 7C 0F F7 0F 00 E0 7D C5 CB FF 01 04 80 CF FE 0F FB 01 E0 E5 05 E0 55 55 55 55 55 55 55 55 55 55
DPCM : 55
DPCMDEF   1  1169 "Chord1.MajorC"
DPCM : 0F 7C 00 FC 7F 17 30 E0 7F F8 01 C0 0F FE 0F FE 01 38 00 FD FF 02 1E C0 7F 7E 00 E0 3F 7C 7E F0
DPCM : 00 7C 48 F0 FF 80 4F C0 FF 1F 02 C0 3F C0 FF 01 3C 2C 17 F0 FF 80 EF 00 FF 83 00 E0 FF C1 FF 00
DPCM : F4 7C 03 FC 3F 00 DF 00 FF 83 00 F0 FF E0 7F 00 5E 78 03 FE 1F C0 FF 00 7E 00 03 FC 7F F0 1F 00
DPCM : 7E FC 01 FF 07 80 FF 00 FF 00 01 FC 7F F0 1F 00 7E 3E 80 FF 3F 80 FF 00 1F 40 80 FF 3F F8 01 00
DPCM : FF 3F C0 1F 0F C0 FF 80 3F 40 00 FF 3F F8 C1 00 FF 0F E0 C7 1F E0 7F 00 07 18 F0 FF 3F 18 00 E0
DPCM : FF 3F F0 C1 01 F8 FF C0 07 00 E0 FF 1F 3F 10 E0 FE 07 F8 F8 03 FC 3E 40 C1 00 FE FF 0F 00 08 F8
DPCM : FF 0F 3F 78 00 FE 3F 78 20 00 FC FF 63 0E 00 FC F3 03 9F 3F C0 8F 0E 18 58 81 FF FF 20 00 00 FF
DPCM : FF F3 C0 07 E0 7F 03 7F 00 00 F3 FF FF 00 80 3F F0 79 CB 07 FC 03 80 1F 6C 34 FA 7F 07 00 F0 5F
DPCM : FE 45 14 00 FF 87 F3 07 70 00 FC FF 3F 00 F8 03 F8 7F 0C C1 FF 00 F0 13 7C 08 FF 7F 00 00 FF 03
DPCM : FF 3F 00 C0 7F 38 FD 03 00 C0 FF FF 0F 80 1F 80 CF 3F 20 FE 0F 00 FC 83 97 F0 FF 81 00 E0 FF C0
DPCM : FF 07 00 FE 07 0F FE 03 00 DC FF FC 00 78 01 F0 F7 0F C1 FF 03 00 FF 03 1C FF 3F 00 08 FC 3F FC
DPCM : F9 00 C0 FF 51 80 FF 01 80 FF 1F 1F 1C 00 98 7F FC 01 FC 7F 00 C0 7F 00 FC FF 01 1C 0E E0 FF 3F
DPCM : 30 00 FC FF 07 E0 1F 00 F8 DF 17 DE 03 00 FC 0B FF 00 FF 07 00 E0 7F 00 FF 47 41 5F 30 F0 FF 07
DPCM : 14 80 FF 7F 08 EE 09 00 FF F1 F1 3F 00 80 FF 81 1F E0 FF 07 00 E0 3F E0 FF 10 F8 07 07 F0 FF 01
DPCM : 06 F8 FF 87 27 00 0F F0 3F 8D FF 41 00 E0 FF 12 74 87 FF 81 1C 00 FF FC 0F 00 7F 3C 60 7C FF 00
DPCM : 60 D0 FF FF 03 00 87 F6 34 BC 3F 0C 01 C0 FF C1 78 D8 FF D8 03 80 FF 78 30 CC 3B 82 77 C0 FF 00
DPCM : 18 F8 FF FF 01 00 7C 4E B8 0F 7F C0 31 E0 7F 60 01 E6 FF FF 00 00 FE 07 CE C1 3F E0 1D A0 7F 50
DPCM : 00 F8 FF FF 00 00 FE 83 97 D1 3F E4 07 80 7F 14 02 FF FF 07 00 00 FE FF 0D D8 E7 C0 03 E0 FF 84
DPCM : 00 FF FF 63 08 00 FC 7E 04 F6 FF 21 02 F0 1F 03 C0 FF FF C1 03 00 FC FF 01 FA 3F 40 40 FC 1F 54
DPCM : C0 FF B3 FE 00 00 F8 3F 00 FE 7F E0 00 D7 10 FC F0 FF 1F 3E 00 00 FE 3F 10 FC 0F 10 DC FF 00 17
DPCM : 6C F6 FE 3F 00 00 FF 01 F0 FF 0F 08 78 70 00 FF 7F F0 FF 07 00 C0 FF 01 66 FC 03 20 FF 0F 00 BF
DPCM : 02 FC FF 0F 00 F8 53 C0 5F FF 43 00 84 0F E0 FF 87 FF FF 00 00 FC 0F 70 C2 7F 40 53 F0 07 E0 5F
DPCM : C0 FF FF 01 80 29 02 FF F3 7F A0 03 80 01 FE 3F FC 3F 3B 00 E0 D9 63 43 FC 07 FC 03 F0 01 7F 00
DPCM : FE BF 1F 00 70 E0 F9 71 FD 0F F2 00 40 F0 FF C0 FF 03 03 80 3F F8 3F 80 FF C1 7F 00 38 F0 1F C0
DPCM : FF 63 47 00 08 FC 7F F0 FF 03 21 00 74 FF 0F F8 7F 00 50 17 06 FE 07 F0 FF 39 70 80 05 FC 07 FC
DPCM : 7F D0 2C 08 00 FF 1F FE FF 00 60 00 3F FC 1F FF 0F 00 78 06 F0 7F 00 FE FF 03 10 8C 01 FE C7 FF
DPCM : 0F A0 80 80 87 FF C1 FF 7F 00 08 C0 0F FE FF F9 01 00 F8 E8 C7 07 E0 FF 3F 00 4E 80 03 FE FF FF
DPCM : 07 10 00 E0 C7 0F FE FF 0F 00 08 E0 07 FF 3F F8 0B 00 F0 F3 1F 00 FE F3 1F 80 1E C0 01 FF FF FE
DPCM : 01 00 00 FF 07 E0 FF FF 03 80 02 F0 1F FF 0F FC 04 00 7E FC 0F 80 FF F8 07 E0 03 60 3F FC FF 1F
DPCM : 20 00 60 FA 1F E0 FF 1F 01 40 00 FC FF 9F FE 07 00 80 7F FC 03 E0 FF C3 60 78 00 F0 7F 80 FF 5F
DPCM : 00 C0 3F C0 3F F0 FF 03 58 00 10 FF FF 03 FF 03 00 F0 7F E8 1F C0 FF 01 1E 05 0E FC 3F 80 FF 07
DPCM : 00 FE 07 E0 FF C1 FF 01 00 00 1F FF FF 80 FF 00 C0 FF 03 F8 3F 80 7F 00 FA 84 07 FE 1D C0 FF 00
DPCM : FC 45 01 FC 7F E0 7F 00 00 E1 FF DF 3F C0 0F 00 FC C3 E0 CF 13 E0 3F 02 FC E4 86 C1 1F F8 1F 48
DPCM : 2F 10 E0 FF 2D FE 0F 00 60 FC 8F F4 0F F0 01 EC 0F 2E FC 44 0D FE 17 00 7F EC 07 E0 03 FE D9 74
DPCM : 50 40 F9 07 FF 7F 01 00 3E FB 1D F8 01 3C 78 FC 10 DF 18 30 FF 4F 0C 80 FF F0 0F E0 14 F8 7F D0
DPCM : 01 6D 0C E0 FF 3F 0C 80 DF F4 0F E0 02 FC 1F F8 81 FD 00 E0 FF 73 00 E0 7F F4 07 C0 0F F8 3F F0
DPCM : 07 7C 00 F0 FF A7 40 E0 7F E0 0F C0 0F FC 0F F8 55
DPCMDEF   2    17 "blank"
DPCM : 55 55 55 55 55 55 55 55 55 55 55 55 55 55 55 55 55

# DETUNETABLES block

# GROOVES block

# Tracks using default groove:

# INSTRUMENTS block
INST2A03   0     5   3  -1  -1   1 "minorc"
KEYDPCM   0   3   0     0   7   1     0  -1
KEYDPCM   0   3   1     2  15   0     0  -1
KEYDPCM   0   3   2     0   8   1     0  -1
KEYDPCM   0   3   5     0   9   1     0  -1
KEYDPCM   0   3   7     0  10   1     0  -1
KEYDPCM   0   3   9     0  11   1     0  -1
INST2A03   1     5   4  -1  -1   1 "majorc"
KEYDPCM   1   3   0     1   7   1     0  -1
KEYDPCM   1   3   2     1   8   1     0  -1
KEYDPCM   1   3   5     1   9   1     0  -1
KEYDPCM   1   3   7     1  10   1     0  -1
KEYDPCM   1   3   9     1  11   1     0  -1
INST2A03   2     0  -1   0  -1  -1 "bass"
INST2A03   3     1  -1  -1  -1   0 "bell"
INST2A03   4     2  -1   1  -1  -1 "trisnare"
INST2A03   5     3  -1  -1  -1  -1 "noiki"
INST2A03   6     4  -1  -1  -1  -1 "noisnare"
INST2A03   7     0   1  -1  -1  -1 "trikisnare"
INST2A03   8     0   2  -1  -1  -1 "trikisnareo2"
INST2A03   9     6  -1   0  -1   2 "lead"
INST2A03  10     7  -1   0  -1   2 "leadech"
INST2A03  11     8  -1  -1  -1  -1 "crash"

# track HEADER block
TRACK  64   6 150 "title"
COLUMNS : 1 1 1 1 1

# track FRAMES block
ORDER 00 : 00 00 00 00 00
ORDER 01 : 00 00 01 01 00
ORDER 02 : 00 00 01 01 01
ORDER 03 : 00 01 01 01 01
ORDER 04 : 00 01 01 01 01
ORDER 05 : 01 02 01 01 01
ORDER 06 : 02 02 01 01 01
ORDER 07 : 03 03 02 02 01

# track PATTERNS block
PATTERN 00
ROW 00 : C-4 03 . ... : ... .. . ... : A-1 02 . ... : ... .. . ... : A-3 00 . ...
ROW 01 : ... .. . ... : ... .. . ... : ... .. . ... : ... .. . ... : A-3 00 . ...
ROW 02 : ... .. . ... : B-3 03 . ... : ... .. . ... : ... .. . ... : A-3 00 . ...
ROW 03 : ... .. . ... : ... .. . ... : ... .. . ... : ... .. . ... : A-3 00 . ...
ROW 04 : C-4 03 . ... : ... .. . ... : ... .. . ... : ... .. . ... : A-3 00 . ...
ROW 05 : ... .. . ... : ... .. . ... : ... .. . ... : ... .. . ... : A-3 00 . ...
ROW 06 : ... .. . ... : A-3 03 . ... : ... .. . ... : ... .. . ... : A-3 00 . ...
ROW 07 : ... .. . ... : ... .. . ... : ... .. . ... : ... .. . ... : A-3 00 . ...
ROW 08 : C-4 03 . ... : ... .. . ... : ... .. . ... : ... .. . ... : A-3 00 . ...
ROW 09 : ... .. . ... : ... .. . ... : ... .. . ... : ... .. . ... : A-3 00 . ...
ROW 0A : ... .. . ... : B-3 03 . ... : ... .. . ... : ... .. . ... : A-3 00 . ...
ROW 0B : ... .. . ... : ... .. . ... : ... .. . ... : ... .. . ... : A-3 00 . ...
ROW 0C : C-4 03 . ... : ... .. . ... : ... .. . ... : ... .. . ... : A-3 00 . ...
ROW 0D : ... .. . ... : ... .. . ... : ... .. . ... : ... .. . ... : A-3 00 . ...
ROW 0E : ... .. . ... : A-3 03 . ... : ... .. . ... : ... .. . ... : A-3 00 . ...
ROW 0F : ... .. . ... : ... .. . ... : ... .. . ... : ... .. . ... : A-3 00 . ...
ROW 10 : C-4 03 . ... : ... .. . ... : ... .. . ... : ... .. . ... : A-3 00 . ...
ROW 11 : ... .. . ... : ... .. . ... : ... .. . ... : ... .. . ... : A-3 00 . ...
ROW 12 : ... .. . ... : B-3 03 . ... : ... .. . ... : ... .. . ... : A-3 00 . ...
ROW 13 : ... .. . ... : ... .. . ... : ... .. . ... : ... .. . ... : A-3 00 . ...
ROW 14 : C-4 03 . ... : ... .. . ... : ... .. . ... : ... .. . ... : A-3 00 . ...
ROW 15 : ... .. . ... : ... .. . ... : ... .. . ... : ... .. . ... : A-3 00 . ...
ROW 16 : ... .. . ... : A-3 03 . ... : ... .. . ... : ... .. . ... : A-3 00 . ...
ROW 17 : ... .. . ... : ... .. . ... : ... .. . ... : ... .. . ... : A-3 00 . ...
ROW 18 : C-4 03 . ... : ... .. . ... : ... .. . ... : ... .. . ... : A-3 00 . ...
ROW 19 : ... .. . ... : ... .. . ... : ... .. . ... : ... .. . ... : A-3 00 . ...
ROW 1A : ... .. . ... : B-3 03 . ... : ... .. . ... : ... .. . ... : A-3 00 . ...
ROW 1B : ... .. . ... : ... .. . ... : ... .. . ... : ... .. . ... : A-3 00 . ...
ROW 1C : C-4 03 . ... : ... .. . ... : ... .. . ... : ... .. . ... : A-3 00 . ...
ROW 1D : ... .. . ... : ... .. . ... : ... .. . ... : ... .. . ... : A-3 00 . ...
ROW 1E : ... .. . ... : A-3 03 . ... : ... .. . ... : ... .. . ... : A-3 00 . ...
ROW 1F : ... .. . ... : ... .. . ... : ... .. . ... : ... .. . ... : A-3 00 . ...
ROW 20 : C-4 03 . ... : ... .. . ... : F-1 02 . ... : ... .. . ... : F-3 00 . ...
ROW 21 : ... .. . ... : ... .. . ... : ... .. . ... : ... .. . ... : F-3 00 . ...
ROW 22 : ... .. . ... : B-3 03 . ... : ... .. . ... : ... .. . ... : F-3 00 . ...
ROW 23 : ... .. . ... : ... .. . ... : ... .. . ... : ... .. . ... : F-3 00 . ...
ROW 24 : C-4 03 . ... : ... .. . ... : ... .. . ... : ... .. . ... : F-3 00 . ...
ROW 25 : ... .. . ... : ... .. . ... : ... .. . ... : ... .. . ... : F-3 00 . ...
ROW 26 : ... .. . ... : G#3 03 . ... : ... .. . ... : ... .. . ... : F-3 00 . ...
ROW 27 : ... .. . ... : ... .. . ... : ... .. . ... : ... .. . ... : F-3 00 . ...
ROW 28 : C-4 03 . ... : ... .. . ... : ... .. . ... : ... .. . ... : F-3 00 . ...
ROW 29 : ... .. . ... : ... .. . ... : ... .. . ... : ... .. . ... : F-3 00 . ...
ROW 2A : ... .. . ... : B-3 03 . ... : ... .. . ... : ... .. . ... : F-3 00 . ...
ROW 2B : ... .. . ... : ... .. . ... : ... .. . ... : ... .. . ... : F-3 00 . ...
ROW 2C : C-4 03 . ... : ... .. . ... : ... .. . ... : ... .. . ... : F-3 00 . ...
ROW 2D : ... .. . ... : ... .. . ... : ... .. . ... : ... .. . ... : F-3 00 . ...
ROW 2E : ... .. . ... : G#3 03 . ... : ... .. . ... : ... .. . ... : F-3 00 . ...
ROW 2F : ... .. . ... : ... .. . ... : ... .. . ... : ... .. . ... : F-3 00 . ...
ROW 30 : C-4 03 . ... : ... .. . ... : ... .. . ... : ... .. . ... : F-3 00 . ...
ROW 31 : ... .. . ... : ... .. . ... : ... .. . ... : ... .. . ... : F-3 00 . ...
ROW 32 : ... .. . ... : B-3 03 . ... : ... .. . ... : ... .. . ... : F-3 00 . ...
ROW 33 : ... .. . ... : ... .. . ... : ... .. . ... : ... .. . ... : F-3 00 . ...
ROW 34 : C-4 03 . ... : ... .. . ... : ... .. . ... : ... .. . ... : F-3 00 . ...
ROW 35 : ... .. . ... : ... .. . ... : ... .. . ... : ... .. . ... : F-3 00 . ...
ROW 36 : ... .. . ... : G#3 03 . ... : ... .. . ... : ... .. . ... : F-3 00 . ...
ROW 37 : ... .. . ... : ... .. . ... : ... .. . ... : ... .. . ... : F-3 00 . ...
ROW 38 : C-4 03 . ... : ... .. . ... : ... .. . ... : ... .. . ... : F-3 00 . ...
ROW 39 : ... .. . ... : ... .. . ... : ... .. . ... : ... .. . ... : F-3 00 . ...
ROW 3A : ... .. . ... : B-3 03 . ... : ... .. . ... : ... .. . ... : F-3 00 . ...
ROW 3B : ... .. . ... : ... .. . ... : ... .. . ... : ... .. . ... : F-3 00 . ...
ROW 3C : C-4 03 . ... : ... .. . ... : ... .. . ... : ... .. . ... : F-3 00 . ...
ROW 3D : ... .. . ... : ... .. . ... : ... .. . ... : ... .. . ... : F-3 00 . ...
ROW 3E : ... .. . ... : G#3 03 . ... : ... .. . ... : ... .. . ... : F-3 00 . ...
ROW 3F : ... .. . ... : ... .. . ... : ... .. . ... : ... .. . ... : F-3 00 . ...
PATTERN 01
ROW 00 : E-3 09 . ... : ... .. . ... : A-1 07 . ... : C-# 05 . ... : C#3 00 . ...
ROW 01 : ... .. . ... : ... .. . ... : ... .. . ... : ... .. . ... : ... .. . ...
ROW 02 : ... .. . ... : B-3 03 . ... : A-2 02 . ... : ... .. . ... : ... .. . ...
ROW 03 : ... .. . ... : ... .. . ... : --- .. . ... : ... .. . ... : ... .. . ...
ROW 04 : ... .. . ... : ... .. . ... : C-4 04 . ... : C-# 06 . ... : ... .. . ...
ROW 05 : ... .. . ... : ... .. . ... : ... .. . ... : ... .. . ... : ... .. . ...
ROW 06 : A-3 09 . ... : A-3 03 . ... : A-1 02 . ... : ... .. . ... : ... .. . ...
ROW 07 : ... .. . ... : ... .. . ... : A-1 02 . ... : ... .. . ... : ... .. . ...
ROW 08 : ... .. . ... : A-3 00 . ... : A-1 07 . ... : C-# 05 . ... : ... .. . ...
ROW 09 : ... .. . ... : ... .. . ... : ... .. . ... : ... .. . ... : ... .. . ...
ROW 0A : ... .. . ... : B-3 03 . ... : A-2 08 . ... : C-# 05 . ... : ... .. . ...
ROW 0B : ... .. . ... : ... .. . ... : --- .. . ... : ... .. . ... : ... .. . ...
ROW 0C : B-3 09 . ... : ... .. . ... : C-4 04 . ... : C-# 06 . ... : ... .. . ...
ROW 0D : ... .. . ... : ... .. . ... : ... .. . ... : ... .. . ... : ... .. . ...
ROW 0E : ... .. . ... : A-3 03 . ... : A-1 02 . ... : ... .. . ... : ... .. . ...
ROW 0F : ... .. . ... : ... .. . ... : ... .. . ... : ... .. . ... : ... .. . ...
ROW 10 : ... .. . ... : ... .. . ... : A-1 07 . ... : C-# 05 . ... : ... .. . ...
ROW 11 : ... .. . ... : ... .. . ... : ... .. . ... : ... .. . ... : ... .. . ...
ROW 12 : C-4 09 . ... : B-3 03 . ... : A-2 08 . ... : C-# 05 . ... : ... .. . ...
ROW 13 : ... .. . ... : ... .. . ... : --- .. . ... : ... .. . ... : ... .. . ...
ROW 14 : ... .. . ... : ... .. . ... : C-4 04 . ... : C-# 06 . ... : ... .. . ...
ROW 15 : ... .. . ... : ... .. . ... : ... .. . ... : ... .. . ... : ... .. . ...
ROW 16 : ... .. . ... : A-3 03 . ... : A-1 07 . ... : C-# 05 . ... : ... .. . ...
ROW 17 : ... .. . ... : ... .. . ... : A-1 07 . ... : C-# 05 . ... : ... .. . ...
ROW 18 : D-4 09 . ... : A-3 00 . ... : A-1 07 . ... : C-# 05 . ... : ... .. . ...
ROW 19 : ... .. . ... : ... .. . ... : ... .. . ... : ... .. . ... : ... .. . ...
ROW 1A : ... .. . ... : B-3 03 . ... : A-2 08 . ... : C-# 05 . ... : ... .. . ...
ROW 1B : ... .. . ... : ... .. . ... : --- .. . ... : ... .. . ... : ... .. . ...
ROW 1C : C-4 09 . ... : ... .. . ... : C-4 04 . ... : C-# 06 . ... : ... .. . ...
ROW 1D : ... .. . ... : ... .. . ... : ... .. . ... : ... .. . ... : ... .. . ...
ROW 1E : ... .. . ... : A-3 03 . ... : A-1 02 . ... : ... .. . ... : ... .. . ...
ROW 1F : ... .. . ... : ... .. . ... : ... .. . ... : ... .. . ... : ... .. . ...
ROW 20 : E-4 09 . ... : ... .. . ... : F-1 07 . ... : C-# 05 . ... : ... .. . ...
ROW 21 : ... .. . ... : ... .. . ... : ... .. . ... : ... .. . ... : ... .. . ...
ROW 22 : ... .. . ... : B-3 03 . ... : F-2 02 . ... : ... .. . ... : ... .. . ...
ROW 23 : ... .. . ... : ... .. . ... : --- .. . ... : ... .. . ... : ... .. . ...
ROW 24 : ... .. . ... : ... .. . ... : C-4 04 . ... : C-# 06 . ... : ... .. . ...
ROW 25 : ... .. . ... : ... .. . ... : ... .. . ... : ... .. . ... : ... .. . ...
ROW 26 : D-4 09 . ... : G#3 03 . ... : F-1 02 . ... : ... .. . ... : ... .. . ...
ROW 27 : ... .. . ... : ... .. . ... : F-1 02 . ... : ... .. . ... : ... .. . ...
ROW 28 : ... .. . ... : F-3 00 . ... : F-1 07 . ... : C-# 05 . ... : ... .. . ...
ROW 29 : ... .. . ... : ... .. . ... : ... .. . ... : ... .. . ... : ... .. . ...
ROW 2A : ... .. . ... : B-3 03 . ... : F-2 08 . ... : C-# 05 . ... : ... .. . ...
ROW 2B : ... .. . ... : ... .. . ... : --- .. . ... : ... .. . ... : ... .. . ...
ROW 2C : C-4 09 . ... : ... .. . ... : C-4 04 . ... : C-# 06 . ... : ... .. . ...
ROW 2D : ... .. . ... : ... .. . ... : ... .. . ... : ... .. . ... : ... .. . ...
ROW 2E : ... .. . ... : G#3 03 . ... : F-1 02 . ... : ... .. . ... : ... .. . ...
ROW 2F : ... .. . ... : ... .. . ... : ... .. . ... : ... .. . ... : ... .. . ...
ROW 30 : ... .. . ... : ... .. . ... : F-1 07 . ... : C-# 05 . ... : ... .. . ...
ROW 31 : ... .. . ... : ... .. . ... : ... .. . ... : ... .. . ... : ... .. . ...
ROW 32 : E-4 09 . ... : B-3 03 . ... : F-2 08 . ... : C-# 05 . ... : ... .. . ...
ROW 33 : ... .. . ... : ... .. . ... : --- .. . ... : ... .. . ... : ... .. . ...
ROW 34 : ... .. . ... : ... .. . ... : C-4 04 . ... : C-# 06 . ... : ... .. . ...
ROW 35 : ... .. . ... : ... .. . ... : ... .. . ... : ... .. . ... : ... .. . ...
ROW 36 : ... .. . ... : G#3 03 . ... : F-1 07 . ... : C-# 05 . ... : ... .. . ...
ROW 37 : ... .. . ... : ... .. . ... : F-1 07 . ... : C-# 05 . ... : ... .. . ...
ROW 38 : D-4 09 . ... : F-3 00 . ... : F-1 07 . ... : C-# 05 . ... : ... .. . ...
ROW 39 : ... .. . ... : ... .. . ... : ... .. . ... : ... .. . ... : ... .. . ...
ROW 3A : ... .. . ... : B-3 03 . ... : F-2 08 . ... : C-# 05 . ... : ... .. . ...
ROW 3B : ... .. . ... : ... .. . ... : --- .. . ... : ... .. . ... : ... .. . ...
ROW 3C : C-4 09 . ... : ... .. . ... : C-4 04 . ... : C-# 06 . ... : ... .. . ...
ROW 3D : ... .. . ... : ... .. . ... : ... .. . ... : ... .. . ... : ... .. . ...
ROW 3E : ... .. . ... : G#3 03 . ... : F-1 07 . ... : C-# 05 . ... : ... .. . ...
ROW 3F : ... .. . ... : ... .. . ... : ... .. . ... : ... .. . ... : ... .. . ...
PATTERN 02
ROW 00 : B-3 09 . ... : C-4 03 . ... : D-1 07 . ... : C-# 05 . ... : ... .. . ...
ROW 01 : ... .. . ... : ... .. . ... : ... .. . ... : ... .. . ... : ... .. . ...
ROW 02 : C-4 09 . ... : B-3 03 . ... : D-2 02 . ... : ... .. . ... : ... .. . ...
ROW 03 : ... .. . ... : ... .. . ... : --- .. . ... : ... .. . ... : ... .. . ...
ROW 04 : ... .. . ... : C-4 03 . ... : C-4 04 . ... : C-# 06 . ... : ... .. . ...
ROW 05 : ... .. . ... : ... .. . ... : ... .. . ... : ... .. . ... : ... .. . ...
ROW 06 : A-3 09 . ... : A-3 03 . ... : D-1 02 . ... : ... .. . ... : ... .. . ...
ROW 07 : ... .. . ... : ... .. . ... : D-1 02 . ... : ... .. . ... : ... .. . ...
ROW 08 : ... .. . ... : A-3 00 . ... : D-1 07 . ... : C-# 05 . ... : ... .. . ...
ROW 09 : ... .. . ... : ... .. . ... : ... .. . ... : ... .. . ... : ... .. . ...
ROW 0A : B-3 09 . ... : B-3 03 . ... : D-2 08 . ... : C-# 05 . ... : ... .. . ...
ROW 0B : ... .. . ... : ... .. . ... : --- .. . ... : ... .. . ... : ... .. . ...
ROW 0C : C-4 09 . ... : C-4 03 . ... : C-4 04 . ... : C-# 06 . ... : ... .. . ...
ROW 0D : ... .. . ... : ... .. . ... : ... .. . ... : ... .. . ... : ... .. . ...
ROW 0E : ... .. . ... : A-3 03 . ... : D-1 02 . ... : ... .. . ... : ... .. . ...
ROW 0F : ... .. . ... : ... .. . ... : ... .. . ... : ... .. . ... : ... .. . ...
ROW 10 : A-3 09 . ... : C-4 03 . ... : D-1 07 . ... : C-# 05 . ... : ... .. . ...
ROW 11 : ... .. . ... : ... .. . ... : ... .. . ... : ... .. . ... : ... .. . ...
ROW 12 : ... .. . ... : B-3 03 . ... : D-2 08 . ... : C-# 05 . ... : ... .. . ...
ROW 13 : ... .. . ... : ... .. . ... : --- .. . ... : ... .. . ... : ... .. . ...
ROW 14 : B-3 09 . ... : C-4 03 . ... : C-4 04 . ... : C-# 06 . ... : ... .. . ...
ROW 15 : ... .. . ... : ... .. . ... : ... .. . ... : ... .. . ... : ... .. . ...
ROW 16 : C-4 09 . ... : A-3 03 . ... : D-1 07 . ... : C-# 05 . ... : ... .. . ...
ROW 17 : ... .. . ... : ... .. . ... : D-1 07 . ... : C-# 05 . ... : ... .. . ...
ROW 18 : B-3 09 . ... : A-3 00 . ... : D-1 07 . ... : C-# 05 . ... : ... .. . ...
ROW 19 : ... .. . ... : ... .. . ... : ... .. . ... : ... .. . ... : ... .. . ...
ROW 1A : C-4 09 . ... : B-3 03 . ... : D-2 08 . ... : C-# 05 . ... : ... .. . ...
ROW 1B : ... .. . ... : ... .. . ... : --- .. . ... : ... .. . ... : ... .. . ...
ROW 1C : D-4 09 . ... : C-4 03 . ... : C-4 04 . ... : C-# 06 . ... : ... .. . ...
ROW 1D : ... .. . ... : ... .. . ... : ... .. . ... : ... .. . ... : ... .. . ...
ROW 1E : C-4 09 . ... : A-3 03 . ... : D-1 07 . ... : ... .. . ... : ... .. . ...
ROW 1F : ... .. . ... : ... .. . ... : ... .. . ... : ... .. . ... : ... .. . ...
ROW 20 : E-4 09 . ... : C-4 03 . ... : E-1 07 . ... : C-# 0B . ... : ... .. . ...
ROW 21 : ... .. . ... : ... .. . ... : ... .. . ... : ... .. . ... : ... .. . ...
ROW 22 : ... .. . ... : B-3 03 . ... : ... .. . ... : ... .. . ... : ... .. . ...
ROW 23 : ... .. . ... : ... .. . ... : ... .. . ... : ... .. . ... : ... .. . ...
ROW 24 : ... .. . ... : C-4 03 . ... : ... .. . ... : ... .. . ... : ... .. . ...
ROW 25 : ... .. . ... : ... .. . ... : ... .. . ... : ... .. . ... : ... .. . ...
ROW 26 : ... .. . ... : G#3 03 . ... : ... .. . ... : ... .. . ... : ... .. . ...
ROW 27 : ... .. . ... : ... .. . ... : ... .. . ... : ... .. . ... : ... .. . ...
ROW 28 : ... .. . ... : F-3 00 . ... : ... .. . ... : ... .. . ... : ... .. . ...
ROW 29 : ... .. . ... : ... .. . ... : ... .. . ... : ... .. . ... : ... .. . ...
ROW 2A : ... .. . ... : B-3 03 . ... : ... .. . ... : ... .. . ... : ... .. . ...
ROW 2B : ... .. . ... : ... .. . ... : ... .. . ... : ... .. . ... : ... .. . ...
ROW 2C : D-4 09 . ... : C-4 03 . ... : ... .. . ... : ... .. . ... : ... .. . ...
ROW 2D : ... .. . ... : ... .. . ... : ... .. . ... : ... .. . ... : ... .. . ...
ROW 2E : ... .. . ... : G#3 03 . ... : ... .. . ... : ... .. . ... : ... .. . ...
ROW 2F : ... .. . ... : ... .. . ... : ... .. . ... : ... .. . ... : ... .. . ...
ROW 30 : ... .. . ... : C-4 03 . ... : ... .. . ... : ... .. . ... : ... .. . ...
ROW 31 : ... .. . ... : ... .. . ... : ... .. . ... : ... .. . ... : ... .. . ...
ROW 32 : ... .. . ... : B-3 03 . ... : ... .. . ... : ... .. . ... : ... .. . ...
ROW 33 : ... .. . ... : ... .. . ... : ... .. . ... : ... .. . ... : ... .. . ...
ROW 34 : ... .. . ... : C-4 03 . ... : ... .. . ... : ... .. . ... : ... .. . ...
ROW 35 : ... .. . ... : ... .. . ... : ... .. . ... : ... .. . ... : ... .. . ...
ROW 36 : ... .. . ... : G#3 03 . ... : ... .. . ... : ... .. . ... : ... .. . ...
ROW 37 : ... .. . ... : ... .. . ... : ... .. . ... : ... .. . ... : ... .. . ...
ROW 38 : C-4 09 . ... : F-3 00 . ... : ... .. . ... : ... .. . ... : ... .. . ...
ROW 39 : ... .. . ... : ... .. . ... : ... .. . ... : ... .. . ... : ... .. . ...
ROW 3A : ... .. . ... : B-3 03 . ... : ... .. . ... : ... .. . ... : ... .. . ...
ROW 3B : ... .. . ... : ... .. . ... : ... .. . ... : ... .. . ... : ... .. . ...
ROW 3C : ... .. . ... : C-4 03 . ... : ... .. . ... : ... .. . ... : ... .. . ...
ROW 3D : ... .. . ... : ... .. . ... : ... .. . ... : ... .. . ... : ... .. . ...
ROW 3E : ... .. . ... : G#3 03 . ... : ... .. . ... : ... .. . ... : ... .. . ...
ROW 3F : ... .. . ... : ... .. . ... : ... .. . ... : ... .. . ... : ... .. . ...
PATTERN 03
ROW 00 : B-3 09 . ... : C-4 03 . ... : ... .. . ... : ... .. . ... : ... .. . ...
ROW 01 : ... .. . ... : ... .. . ... : ... .. . ... : ... .. . ... : ... .. . ...
ROW 02 : ... .. . ... : ... .. . ... : ... .. . ... : ... .. . ... : ... .. . ...
ROW 03 : ... .. . ... : ... .. . ... : ... .. . ... : ... .. . ... : ... .. . ...
ROW 04 : ... .. . ... : ... .. . ... : ... .. . ... : ... .. . ... : ... .. . ...
ROW 05 : ... .. . ... : ... .. . ... : ... .. . ... : ... .. . ... : ... .. . ...
ROW 06 : ... .. . ... : ... .. . ... : ... .. . ... : ... .. . ... : ... .. . ...
ROW 07 : ... .. . ... : ... .. . ... : ... .. . ... : ... .. . ... : ... .. . ...
ROW 08 : ... .. . ... : ... .. . ... : ... .. . ... : ... .. . ... : ... .. . ...
ROW 09 : ... .. . ... : ... .. . ... : ... .. . ... : ... .. . ... : ... .. . ...
ROW 0A : ... .. . ... : ... .. . ... : ... .. . ... : ... .. . ... : ... .. . ...
ROW 0B : ... .. . ... : ... .. . ... : ... .. . ... : ... .. . ... : ... .. . ...
ROW 0C : A-3 09 . ... : ... .. . ... : ... .. . ... : ... .. . ... : ... .. . ...
ROW 0D : ... .. . ... : ... .. . ... : ... .. . ... : ... .. . ... : ... .. . ...
ROW 0E : ... .. . ... : ... .. . ... : ... .. . ... : ... .. . ... : ... .. . ...
ROW 0F : ... .. . ... : ... .. . ... : ... .. . ... : ... .. . ... : ... .. . ...
ROW 10 : ... .. . ... : ... .. . ... : ... .. . ... : ... .. . ... : ... .. . ...
ROW 11 : ... .. . ... : ... .. . ... : ... .. . ... : ... .. . ... : ... .. . ...
ROW 12 : ... .. . ... : ... .. . ... : ... .. . ... : ... .. . ... : ... .. . ...
ROW 13 : ... .. . ... : ... .. . ... : ... .. . ... : ... .. . ... : ... .. . ...
ROW 14 : ... .. . ... : ... .. . ... : ... .. . ... : ... .. . ... : ... .. . ...
ROW 15 : ... .. . ... : ... .. . ... : ... .. . ... : ... .. . ... : ... .. . ...
ROW 16 : ... .. . ... : ... .. . ... : ... .. . ... : ... .. . ... : ... .. . ...
ROW 17 : ... .. . ... : ... .. . ... : ... .. . ... : ... .. . ... : ... .. . ...
ROW 18 : G#3 09 . ... : ... .. . ... : ... .. . ... : ... .. . ... : ... .. . ...
ROW 19 : ... .. . ... : ... .. . ... : ... .. . ... : ... .. . ... : ... .. . ...
ROW 1A : ... .. . ... : ... .. . ... : ... .. . ... : ... .. . ... : ... .. . ...
ROW 1B : ... .. . ... : ... .. . ... : ... .. . ... : ... .. . ... : ... .. . ...
ROW 1C : ... .. . ... : ... .. . ... : ... .. . ... : ... .. . ... : ... .. . ...
ROW 1D : ... .. . ... : ... .. . ... : ... .. . ... : ... .. . ... : ... .. . ...
ROW 1E : ... .. . ... : ... .. . ... : ... .. . ... : ... .. . ... : ... .. . ...
ROW 1F : ... .. . ... : ... .. . ... : ... .. . ... : ... .. . ... : ... .. . ...
ROW 20 : E-3 09 . ... : ... .. . ... : ... .. . ... : ... .. . ... : ... .. . ...
ROW 21 : ... .. . ... : ... .. . ... : ... .. . ... : ... .. . ... : ... .. . ...
ROW 22 : ... .. . ... : ... .. . ... : ... .. . ... : ... .. . ... : ... .. . ...
ROW 23 : ... .. . ... : ... .. . ... : ... .. . ... : ... .. . ... : ... .. . ...
ROW 24 : ... .. . ... : ... .. . ... : ... .. . ... : ... .. . ... : ... .. . ...
ROW 25 : ... .. . ... : ... .. . ... : ... .. . ... : ... .. . ... : ... .. . ...
ROW 26 : ... .. . ... : ... .. . ... : ... .. . ... : ... .. . ... : ... .. . ...
ROW 27 : ... .. . ... : ... .. . ... : ... .. . ... : ... .. . ... : ... .. . ...
ROW 28 : ... .. . ... : ... .. . ... : ... .. . ... : ... .. . ... : ... .. . ...
ROW 29 : ... .. . ... : ... .. . ... : ... .. . ... : ... .. . ... : ... .. . ...
ROW 2A : ... .. . ... : ... .. . ... : ... .. . ... : ... .. . ... : ... .. . ...
ROW 2B : ... .. . ... : ... .. . ... : ... .. . ... : ... .. . ... : ... .. . ...
ROW 2C : ... .. . ... : ... .. . ... : ... .. . ... : ... .. . ... : ... .. . ...
ROW 2D : ... .. . ... : ... .. . ... : ... .. . ... : ... .. . ... : ... .. . ...
ROW 2E : ... .. . ... : ... .. . ... : ... .. . ... : ... .. . ... : ... .. . ...
ROW 2F : ... .. . ... : ... .. . ... : ... .. . ... : ... .. . ... : ... .. . ...
ROW 30 : === .. . ... : ... .. . ... : ... .. . ... : ... .. . ... : ... .. . ...
ROW 31 : ... .. . ... : ... .. . ... : ... .. . ... : ... .. . ... : ... .. . ...
ROW 32 : ... .. . ... : ... .. . ... : ... .. . ... : ... .. . ... : ... .. . ...
ROW 33 : ... .. . ... : ... .. . ... : ... .. . ... : ... .. . ... : ... .. . ...
ROW 34 : ... .. . ... : ... .. . ... : ... .. . ... : ... .. . ... : ... .. . ...
ROW 35 : ... .. . ... : ... .. . ... : ... .. . ... : ... .. . ... : ... .. . ...
ROW 36 : ... .. . ... : ... .. . ... : ... .. . ... : ... .. . ... : ... .. . ...
ROW 37 : ... .. . ... : ... .. . ... : ... .. . ... : ... .. . ... : ... .. . ...
ROW 38 : ... .. . ... : ... .. . ... : ... .. . ... : ... .. . ... : ... .. . ...
ROW 39 : ... .. . ... : ... .. . ... : ... .. . ... : ... .. . ... : ... .. . ...
ROW 3A : ... .. . ... : ... .. . ... : ... .. . ... : ... .. . ... : ... .. . ...
ROW 3B : ... .. . ... : ... .. . ... : ... .. . ... : ... .. . ... : ... .. . ...
ROW 3C : ... .. . ... : ... .. . ... : ... .. . ... : ... .. . ... : ... .. . ...
ROW 3D : ... .. . ... : ... .. . ... : ... .. . ... : ... .. . ... : ... .. . ...
ROW 3E : ... .. . ... : ... .. . ... : ... .. . ... : ... .. . ... : ... .. . ...
ROW 3F : ... .. . ... : ... .. . ... : ... .. . ... : ... .. . ... : ... .. . ...

# track BOOKMARKS block

# JSON block
JSON "null"

# PARAMS_EMU block
USEEXTERNALOPLL 0

# End of export
